<mxfile host="app.diagrams.net" modified="2021-08-19T12:16:10.283Z" agent="5.0 (Windows NT 10.0; Win64; x64) AppleWebKit/537.36 (KHTML, like Gecko) Chrome/92.0.4515.159 Safari/537.36" etag="wHQZDGvItubAWNHSCu9X" version="14.9.8" type="github">
  <diagram id="C5RBs43oDa-KdzZeNtuy" name="Page-1">
    <mxGraphModel dx="2159" dy="750" grid="1" gridSize="10" guides="1" tooltips="1" connect="1" arrows="1" fold="1" page="1" pageScale="1" pageWidth="827" pageHeight="1169" math="0" shadow="0">
      <root>
        <mxCell id="WIyWlLk6GJQsqaUBKTNV-0" />
        <mxCell id="WIyWlLk6GJQsqaUBKTNV-1" parent="WIyWlLk6GJQsqaUBKTNV-0" />
        <mxCell id="5ReCJwLFuntgNoPA8Rqd-2" value="" style="edgeStyle=orthogonalEdgeStyle;rounded=0;orthogonalLoop=1;jettySize=auto;html=1;" edge="1" parent="WIyWlLk6GJQsqaUBKTNV-1" source="5ReCJwLFuntgNoPA8Rqd-0" target="5ReCJwLFuntgNoPA8Rqd-1">
          <mxGeometry relative="1" as="geometry" />
        </mxCell>
        <mxCell id="5ReCJwLFuntgNoPA8Rqd-0" value="시작" style="ellipse;whiteSpace=wrap;html=1;aspect=fixed;" vertex="1" parent="WIyWlLk6GJQsqaUBKTNV-1">
          <mxGeometry x="20" y="40" width="80" height="80" as="geometry" />
        </mxCell>
        <mxCell id="5ReCJwLFuntgNoPA8Rqd-4" value="" style="edgeStyle=orthogonalEdgeStyle;rounded=0;orthogonalLoop=1;jettySize=auto;html=1;" edge="1" parent="WIyWlLk6GJQsqaUBKTNV-1" source="5ReCJwLFuntgNoPA8Rqd-1" target="5ReCJwLFuntgNoPA8Rqd-3">
          <mxGeometry relative="1" as="geometry" />
        </mxCell>
        <mxCell id="5ReCJwLFuntgNoPA8Rqd-1" value="시작할 인원 수 입력" style="ellipse;whiteSpace=wrap;html=1;" vertex="1" parent="WIyWlLk6GJQsqaUBKTNV-1">
          <mxGeometry x="140" y="40" width="120" height="80" as="geometry" />
        </mxCell>
        <mxCell id="5ReCJwLFuntgNoPA8Rqd-6" value="" style="edgeStyle=orthogonalEdgeStyle;rounded=0;orthogonalLoop=1;jettySize=auto;html=1;" edge="1" parent="WIyWlLk6GJQsqaUBKTNV-1" source="5ReCJwLFuntgNoPA8Rqd-3" target="5ReCJwLFuntgNoPA8Rqd-5">
          <mxGeometry relative="1" as="geometry" />
        </mxCell>
        <mxCell id="5ReCJwLFuntgNoPA8Rqd-3" value="순서 정하기" style="ellipse;whiteSpace=wrap;html=1;" vertex="1" parent="WIyWlLk6GJQsqaUBKTNV-1">
          <mxGeometry x="140" y="150" width="120" height="60" as="geometry" />
        </mxCell>
        <mxCell id="5ReCJwLFuntgNoPA8Rqd-8" value="" style="edgeStyle=orthogonalEdgeStyle;rounded=0;orthogonalLoop=1;jettySize=auto;html=1;" edge="1" parent="WIyWlLk6GJQsqaUBKTNV-1" source="5ReCJwLFuntgNoPA8Rqd-5" target="5ReCJwLFuntgNoPA8Rqd-7">
          <mxGeometry relative="1" as="geometry" />
        </mxCell>
        <mxCell id="5ReCJwLFuntgNoPA8Rqd-5" value="제시어 저장 변수&lt;br&gt;만들기" style="ellipse;whiteSpace=wrap;html=1;" vertex="1" parent="WIyWlLk6GJQsqaUBKTNV-1">
          <mxGeometry x="140" y="240" width="120" height="60" as="geometry" />
        </mxCell>
        <mxCell id="5ReCJwLFuntgNoPA8Rqd-10" value="" style="edgeStyle=orthogonalEdgeStyle;rounded=0;orthogonalLoop=1;jettySize=auto;html=1;" edge="1" parent="WIyWlLk6GJQsqaUBKTNV-1" source="5ReCJwLFuntgNoPA8Rqd-7" target="5ReCJwLFuntgNoPA8Rqd-9">
          <mxGeometry relative="1" as="geometry" />
        </mxCell>
        <mxCell id="5ReCJwLFuntgNoPA8Rqd-13" value="" style="edgeStyle=orthogonalEdgeStyle;rounded=0;orthogonalLoop=1;jettySize=auto;html=1;" edge="1" parent="WIyWlLk6GJQsqaUBKTNV-1" source="5ReCJwLFuntgNoPA8Rqd-7" target="5ReCJwLFuntgNoPA8Rqd-12">
          <mxGeometry relative="1" as="geometry" />
        </mxCell>
        <mxCell id="5ReCJwLFuntgNoPA8Rqd-7" value="입력단어 저장할&lt;br&gt;변수 만들기" style="ellipse;whiteSpace=wrap;html=1;" vertex="1" parent="WIyWlLk6GJQsqaUBKTNV-1">
          <mxGeometry x="140" y="330" width="120" height="60" as="geometry" />
        </mxCell>
        <mxCell id="5ReCJwLFuntgNoPA8Rqd-9" value="입력한 변수 저장&lt;br&gt;(input)" style="whiteSpace=wrap;html=1;" vertex="1" parent="WIyWlLk6GJQsqaUBKTNV-1">
          <mxGeometry x="-20" y="330" width="120" height="60" as="geometry" />
        </mxCell>
        <mxCell id="5ReCJwLFuntgNoPA8Rqd-15" value="" style="edgeStyle=orthogonalEdgeStyle;rounded=0;orthogonalLoop=1;jettySize=auto;html=1;" edge="1" parent="WIyWlLk6GJQsqaUBKTNV-1" source="5ReCJwLFuntgNoPA8Rqd-11" target="5ReCJwLFuntgNoPA8Rqd-14">
          <mxGeometry relative="1" as="geometry" />
        </mxCell>
        <mxCell id="5ReCJwLFuntgNoPA8Rqd-11" value="입력 버튼 클릭" style="shape=process;whiteSpace=wrap;html=1;backgroundOutline=1;" vertex="1" parent="WIyWlLk6GJQsqaUBKTNV-1">
          <mxGeometry x="485" y="40" width="120" height="60" as="geometry" />
        </mxCell>
        <mxCell id="5ReCJwLFuntgNoPA8Rqd-12" value="대기" style="shape=process;whiteSpace=wrap;html=1;backgroundOutline=1;" vertex="1" parent="WIyWlLk6GJQsqaUBKTNV-1">
          <mxGeometry x="140" y="420" width="120" height="60" as="geometry" />
        </mxCell>
        <mxCell id="5ReCJwLFuntgNoPA8Rqd-17" value="" style="edgeStyle=orthogonalEdgeStyle;rounded=0;orthogonalLoop=1;jettySize=auto;html=1;" edge="1" parent="WIyWlLk6GJQsqaUBKTNV-1" source="5ReCJwLFuntgNoPA8Rqd-14" target="5ReCJwLFuntgNoPA8Rqd-16">
          <mxGeometry relative="1" as="geometry" />
        </mxCell>
        <mxCell id="5ReCJwLFuntgNoPA8Rqd-24" value="" style="edgeStyle=orthogonalEdgeStyle;rounded=0;orthogonalLoop=1;jettySize=auto;html=1;" edge="1" parent="WIyWlLk6GJQsqaUBKTNV-1" source="5ReCJwLFuntgNoPA8Rqd-14" target="5ReCJwLFuntgNoPA8Rqd-23">
          <mxGeometry relative="1" as="geometry" />
        </mxCell>
        <mxCell id="5ReCJwLFuntgNoPA8Rqd-14" value="제시어가 올바른가?" style="rhombus;whiteSpace=wrap;html=1;" vertex="1" parent="WIyWlLk6GJQsqaUBKTNV-1">
          <mxGeometry x="470" y="130" width="150" height="80" as="geometry" />
        </mxCell>
        <mxCell id="5ReCJwLFuntgNoPA8Rqd-19" value="" style="edgeStyle=orthogonalEdgeStyle;rounded=0;orthogonalLoop=1;jettySize=auto;html=1;" edge="1" parent="WIyWlLk6GJQsqaUBKTNV-1" source="5ReCJwLFuntgNoPA8Rqd-16" target="5ReCJwLFuntgNoPA8Rqd-18">
          <mxGeometry relative="1" as="geometry" />
        </mxCell>
        <mxCell id="5ReCJwLFuntgNoPA8Rqd-16" value="입력한 단어가 제시어" style="ellipse;whiteSpace=wrap;html=1;" vertex="1" parent="WIyWlLk6GJQsqaUBKTNV-1">
          <mxGeometry x="340" y="220" width="120" height="60" as="geometry" />
        </mxCell>
        <mxCell id="5ReCJwLFuntgNoPA8Rqd-21" value="" style="edgeStyle=orthogonalEdgeStyle;rounded=0;orthogonalLoop=1;jettySize=auto;html=1;" edge="1" parent="WIyWlLk6GJQsqaUBKTNV-1" source="5ReCJwLFuntgNoPA8Rqd-18" target="5ReCJwLFuntgNoPA8Rqd-20">
          <mxGeometry relative="1" as="geometry" />
        </mxCell>
        <mxCell id="5ReCJwLFuntgNoPA8Rqd-18" value="순서 다음사람으로&lt;br&gt;넘어간다" style="ellipse;whiteSpace=wrap;html=1;" vertex="1" parent="WIyWlLk6GJQsqaUBKTNV-1">
          <mxGeometry x="340" y="320" width="120" height="60" as="geometry" />
        </mxCell>
        <mxCell id="5ReCJwLFuntgNoPA8Rqd-20" value="입력창 비워주고&lt;br&gt;커서두기" style="ellipse;whiteSpace=wrap;html=1;" vertex="1" parent="WIyWlLk6GJQsqaUBKTNV-1">
          <mxGeometry x="340" y="420" width="120" height="60" as="geometry" />
        </mxCell>
        <mxCell id="5ReCJwLFuntgNoPA8Rqd-22" value="Yes" style="text;html=1;strokeColor=none;fillColor=none;align=center;verticalAlign=middle;whiteSpace=wrap;rounded=0;" vertex="1" parent="WIyWlLk6GJQsqaUBKTNV-1">
          <mxGeometry x="414" y="150" width="40" height="20" as="geometry" />
        </mxCell>
        <mxCell id="5ReCJwLFuntgNoPA8Rqd-25" style="edgeStyle=orthogonalEdgeStyle;rounded=0;orthogonalLoop=1;jettySize=auto;html=1;entryX=1;entryY=0.5;entryDx=0;entryDy=0;" edge="1" parent="WIyWlLk6GJQsqaUBKTNV-1" source="5ReCJwLFuntgNoPA8Rqd-23" target="5ReCJwLFuntgNoPA8Rqd-20">
          <mxGeometry relative="1" as="geometry" />
        </mxCell>
        <mxCell id="5ReCJwLFuntgNoPA8Rqd-23" value="alert 출력" style="ellipse;whiteSpace=wrap;html=1;" vertex="1" parent="WIyWlLk6GJQsqaUBKTNV-1">
          <mxGeometry x="630" y="230" width="120" height="60" as="geometry" />
        </mxCell>
      </root>
    </mxGraphModel>
  </diagram>
</mxfile>
